<svg t="1681957591416" class="icon" viewBox="110 100 800 840" version="1.1" xmlns="http://www.w3.org/2000/svg" p-id="37351" width="200" height="200"><path d="M741.66272 842.9568c0 54.92736 31.70304 77.33248 70.90176 77.33248 39.1168 0 70.90176-22.3232 70.90176-77.33248s-70.90176-166.17472-70.90176-166.17472-70.90176 111.28832-70.90176 166.17472z m160.48128-505.52832l-217.45664-224.6656c-16.13824-16.67072-43.8272-15.27808-61.60384 3.03104-17.73568 18.30912-19.12832 46.85824-2.99008 63.40608l6.43072 6.59456L152.9856 664.33024c-56.5248 57.09824-56.5248 149.7088 0 206.848 56.5248 57.09824 148.15232 57.09824 204.67712 0L828.98944 394.89536l8.6016 8.88832c16.13824 16.67072 43.8272 15.27808 61.60384-3.03104 17.69472-18.2272 19.08736-46.77632 2.94912-63.32416z m-276.6848 157.4912h-192.55296s236.29824-233.63584 239.08352-236.58496l93.83936 94.8224-140.36992 141.76256z m0 0" fill="#ffffff" p-id="37352" data-spm-anchor-id="a313x.7781069.0.i10" class="selected"></path></svg>
