<?xml version="1.0" standalone="no"?><!DOCTYPE svg PUBLIC "-//W3C//DTD SVG 1.1//EN" "http://www.w3.org/Graphics/SVG/1.1/DTD/svg11.dtd"><svg t="1712546367717" class="icon" viewBox="0 0 1024 1024" version="1.1" xmlns="http://www.w3.org/2000/svg" p-id="1468" width="200" height="200" xmlns:xlink="http://www.w3.org/1999/xlink"><path d="M906.5 888.2h-789c-28.9 0-52.5-22.6-52.5-50.3V186.1c0-27.8 23.5-50.3 52.5-50.3H427c11.8 0 23.3 3.8 32.5 10.8l79 59.9c5.1 3.8 11.5 6 18 6h350c28.9 0 52.5 22.6 52.5 50.3v575c0 27.8-23.5 50.4-52.5 50.4z m-789-728.4c-15.7 0-28.5 11.8-28.5 26.3v651.7c0 14.5 12.8 26.3 28.5 26.3h789.1c15.7 0 28.5-11.8 28.5-26.3v-575c0-14.5-12.8-26.3-28.5-26.3h-350c-11.8 0-23.3-3.8-32.5-10.8l-79-59.9c-5.1-3.8-11.5-6-18-6H117.5z" fill="#ffffff" p-id="1469"></path><path d="M77 353h860v24H77z" fill="#ffffff" p-id="1470"></path></svg>