<?xml version="1.0" standalone="no"?><!DOCTYPE svg PUBLIC "-//W3C//DTD SVG 1.1//EN" "http://www.w3.org/Graphics/SVG/1.1/DTD/svg11.dtd"><svg t="1685343738486" class="icon" viewBox="0 0 1024 1024" version="1.1" xmlns="http://www.w3.org/2000/svg" p-id="1591" xmlns:xlink="http://www.w3.org/1999/xlink" width="200" height="200"><path d="M533.333333 853.333333H298.666667c-23.466667 0-42.666667-19.2-42.666667-42.666666V213.333333c0-23.466667 19.2-42.666667 42.666667-42.666666h384c23.466667 0 42.666667 19.2 42.666666 42.666666v149.333334c0 12.8 8.533333 21.333333 21.333334 21.333333h42.666666c12.8 0 21.333333-8.533333 21.333334-21.333333V170.666667c0-46.933333-38.4-85.333333-85.333334-85.333334H256C209.066667 85.333333 170.666667 123.733333 170.666667 170.666667v682.666666c0 46.933333 38.4 85.333333 85.333333 85.333334h277.333333c12.8 0 21.333333-8.533333 21.333334-21.333334v-42.666666c0-12.8-8.533333-21.333333-21.333334-21.333334z" p-id="1592"></path><path d="M576 341.333333H320c-12.8 0-21.333333-8.533333-21.333333-21.333333v-42.666667c0-12.8 8.533333-21.333333 21.333333-21.333333h256c12.8 0 21.333333 8.533333 21.333333 21.333333v42.666667c0 12.8-8.533333 21.333333-21.333333 21.333333zM448 512h-128c-12.8 0-21.333333-8.533333-21.333333-21.333333v-42.666667c0-12.8 8.533333-21.333333 21.333333-21.333333h128c12.8 0 21.333333 8.533333 21.333333 21.333333v42.666667c0 12.8-8.533333 21.333333-21.333333 21.333333zM704 915.2l-170.666667-98.133333c-12.8-8.533333-21.333333-21.333333-21.333333-36.266667v-196.266667c0-14.933333 8.533333-29.866667 21.333333-36.266666l170.666667-98.133334c12.8-8.533333 29.866667-8.533333 42.666667 0l170.666666 98.133334c12.8 8.533333 21.333333 21.333333 21.333334 36.266666v196.266667c0 14.933333-8.533333 29.866667-21.333334 36.266667l-170.666666 98.133333c-12.8 6.4-29.866667 6.4-42.666667 0z m-96-155.733333l117.333333 68.266666 117.333334-68.266666c6.4-4.266667 10.666667-10.666667 10.666666-19.2v-123.733334c0-8.533333-4.266667-14.933333-10.666666-19.2l-106.666667-61.866666c-6.4-4.266667-14.933333-4.266667-21.333333 0l-106.666667 61.866666c-6.4 4.266667-10.666667 10.666667-10.666667 19.2v123.733334c0 8.533333 4.266667 17.066667 10.666667 19.2z" p-id="1593"></path><path d="M817.066667 633.6l-12.8-17.066667c-6.4-10.666667-19.2-12.8-29.866667-6.4L725.333333 640l-51.2-29.866667c-10.666667-6.4-23.466667-2.133333-29.866666 6.4l-10.666667 19.2c-6.4 10.666667-2.133333 23.466667 6.4 29.866667l51.2 29.866667v64c0 12.8 8.533333 21.333333 21.333333 21.333333h21.333334c12.8 0 21.333333-8.533333 21.333333-21.333333v-64l51.2-29.866667c12.8-8.533333 14.933333-21.333333 10.666667-32z" p-id="1594"></path></svg>
