<?xml version="1.0" standalone="no"?><!DOCTYPE svg PUBLIC "-//W3C//DTD SVG 1.1//EN" "http://www.w3.org/Graphics/SVG/1.1/DTD/svg11.dtd"><svg t="1686642103727" class="icon" viewBox="70 80 900 900" version="1.1" xmlns="http://www.w3.org/2000/svg" p-id="10268" xmlns:xlink="http://www.w3.org/1999/xlink" width="200" height="200"><path d="M506.88 693.76h5.12l30.72 5.12c5.12 0 10.24 2.56 15.36 2.56 38.4 0 71.68-28.16 76.8-69.12l2.56-28.16c0-10.24 7.68-17.92 15.36-20.48l30.72-12.8c40.96-17.92 58.88-69.12 35.84-110.08l-17.92-30.72c-5.12-7.68-5.12-17.92 0-25.6l17.92-30.72c23.04-38.4 7.68-89.6-35.84-110.08l-30.72-12.8c-7.68-2.56-15.36-12.8-15.36-20.48l-2.56-28.16c-5.12-40.96-38.4-69.12-76.8-69.12-5.12 0-10.24 0-15.36 2.56l-30.72 5.12h-5.12c-7.68 0-15.36-2.56-17.92-7.68l-25.6-28.16c-15.36-17.92-35.84-25.6-56.32-25.6-20.48 0-40.96 7.68-56.32 25.6l-25.6 28.16c-5.12 5.12-12.8 7.68-17.92 7.68h-5.12l-30.72-5.12c-5.12 0-10.24-2.56-15.36-2.56-38.4 0-71.68 28.16-76.8 69.12l-2.56 28.16c0 10.24-7.68 17.92-15.36 20.48l-30.72 12.8c-40.96 17.92-58.88 69.12-35.84 110.08l17.92 30.72c5.12 7.68 5.12 17.92 0 25.6l-17.92 30.72c-23.04 38.4-7.68 89.6 35.84 110.08l30.72 12.8c7.68 2.56 15.36 12.8 15.36 20.48l2.56 28.16c5.12 40.96 38.4 69.12 76.8 69.12 5.12 0 10.24 0 15.36-2.56l30.72-5.12h5.12c7.68 0 15.36 2.56 17.92 7.68l25.6 28.16c15.36 17.92 35.84 25.6 56.32 25.6s40.96-7.68 56.32-25.6l25.6-28.16c2.56-2.56 10.24-7.68 17.92-7.68z m-58.88-25.6l-25.6 28.16c-7.68 7.68-15.36 7.68-17.92 7.68s-12.8 0-17.92-7.68l-25.6-28.16c-15.36-15.36-35.84-25.6-56.32-25.6-5.12 0-10.24 0-15.36 2.56l-30.72 5.12h-5.12c-10.24 0-23.04-7.68-25.6-23.04l-2.56-28.16c-2.56-28.16-20.48-51.2-46.08-61.44l-30.72-12.8c-10.24-5.12-12.8-10.24-12.8-15.36-2.56-5.12-2.56-12.8 2.56-20.48l17.92-30.72c12.8-23.04 12.8-53.76 0-76.8l-17.92-30.72c-5.12-7.68-2.56-17.92-2.56-20.48 2.56-5.12 5.12-10.24 12.8-15.36l30.72-12.8c25.6-10.24 43.52-35.84 46.08-61.44l2.56-28.16c2.56-15.36 12.8-23.04 25.6-23.04h5.12l30.72 5.12c5.12 0 10.24 2.56 15.36 2.56 23.04 0 43.52-10.24 56.32-25.6l25.6-28.16c7.68-7.68 15.36-7.68 17.92-7.68 5.12 0 12.8 0 17.92 7.68l25.6 28.16c15.36 15.36 35.84 25.6 56.32 25.6 5.12 0 10.24 0 15.36-2.56l30.72-5.12h5.12c10.24 0 23.04 7.68 25.6 23.04l2.56 28.16c2.56 28.16 20.48 51.2 46.08 61.44l30.72 12.8c10.24 5.12 12.8 10.24 12.8 15.36 2.56 5.12 2.56 12.8-2.56 20.48l-17.92 30.72c-12.8 23.04-12.8 53.76 0 76.8l17.92 30.72c5.12 7.68 2.56 17.92 2.56 20.48-2.56 5.12-5.12 10.24-12.8 15.36l-30.72 12.8c-25.6 10.24-43.52 35.84-46.08 61.44l-2.56 28.16c-2.56 15.36-12.8 23.04-25.6 23.04h-5.12l-30.72-5.12c-5.12 0-10.24-2.56-15.36-2.56-20.48 0-40.96 10.24-56.32 25.6z" p-id="10269" fill="#ffffff"></path><path d="M348.16 232.96c-61.44 0-112.64 51.2-112.64 112.64s51.2 112.64 112.64 112.64 112.64-51.2 112.64-112.64-48.64-112.64-112.64-112.64z m0 176.64c-33.28 0-61.44-28.16-61.44-61.44 0-33.28 28.16-61.44 61.44-61.44 33.28 0 61.44 28.16 61.44 61.44 2.56 33.28-25.6 61.44-61.44 61.44z" p-id="10270" fill="#ffffff"></path><path d="M360.96 550.4m-38.4 0a38.4 38.4 0 1 0 76.8 0 38.4 38.4 0 1 0-76.8 0Z" p-id="10271" fill="#ffffff"></path><path d="M952.32 693.76l12.8-20.48c12.8-20.48 15.36-46.08 7.68-66.56-7.68-23.04-23.04-40.96-46.08-51.2l-20.48-7.68-2.56-17.92c-2.56-23.04-15.36-46.08-33.28-58.88-17.92-12.8-43.52-17.92-66.56-12.8l-23.04 5.12c-12.8 2.56-23.04 15.36-20.48 30.72s17.92 23.04 30.72 20.48l23.04-5.12c10.24-2.56 17.92 0 25.6 5.12 7.68 5.12 12.8 12.8 12.8 23.04l2.56 20.48c2.56 15.36 12.8 30.72 25.6 35.84l23.04 10.24c7.68 2.56 15.36 10.24 17.92 20.48 2.56 7.68 2.56 17.92-2.56 25.6l-12.8 23.04c-7.68 12.8-7.68 30.72 0 46.08l12.8 23.04c5.12 7.68 5.12 17.92 2.56 25.6-2.56 7.68-10.24 15.36-17.92 20.48l-23.04 10.24c-15.36 7.68-25.6 20.48-25.6 35.84l-2.56 20.48c0 10.24-5.12 17.92-12.8 23.04-7.68 5.12-15.36 7.68-25.6 5.12l-23.04-5.12c-15.36-2.56-33.28 2.56-43.52 12.8l-20.48 23.04c-12.8 12.8-35.84 12.8-48.64 0l-20.48-23.04c-10.24-12.8-28.16-17.92-43.52-12.8l-23.04 5.12c-7.68 2.56-17.92 0-25.6-5.12-7.68-5.12-12.8-12.8-12.8-23.04l-2.56-20.48c-2.56-15.36-12.8-30.72-25.6-35.84l-23.04-10.24c-12.8-5.12-28.16 0-33.28 12.8-5.12 12.8 0 28.16 12.8 33.28l20.48 7.68 2.56 17.92c2.56 23.04 15.36 46.08 33.28 58.88 17.92 12.8 43.52 17.92 66.56 12.8l17.92-5.12 17.92 17.92c15.36 17.92 38.4 28.16 61.44 28.16s46.08-10.24 61.44-28.16l17.92-17.92 17.92 5.12c23.04 5.12 46.08 0 66.56-12.8 17.92-12.8 30.72-35.84 33.28-58.88l2.56-17.92 20.48-7.68c20.48-10.24 38.4-28.16 46.08-51.2 7.68-23.04 5.12-46.08-7.68-66.56l-7.68-23.04zM540.16 512c28.16 0 51.2-23.04 51.2-51.2s-23.04-51.2-51.2-51.2-51.2 23.04-51.2 51.2 23.04 51.2 51.2 51.2z" p-id="10272" fill="#ffffff"></path></svg>
