<svg t="1680424613291" class="icon" viewBox="60 0 1078 824" version="1.1" xmlns="http://www.w3.org/2000/svg" p-id="2441" width="84" height="84"><path d="M844.58204492 878.27978516c-5.37210352-169.46544727-121.11651563-311.58200391-276.90751758-357.00069727 2.93023828-1.46511914 10.25583398-5.86047656 11.72095313-6.34884961 8.3023418-4.39535742 26.86051758-17.58142969 28.81400976-18.55817578 6.83722266-5.37210352 24.90702539-21.48841406 27.34889063-23.9302793 4.88373047-4.88373047 30.76750195-37.60472461 33.20936719-41.51170898 5.37210352-8.3023418 9.76746094-16.60468359 13.67444531-25.39539844 0.48837305-1.46511914 1.46511914-2.44186523 1.95349219-3.41861133 14.65119141-31.74424805 22.46516016-66.90710742 22.46516015-102.06996679 0-135.76770703-110.37230859-246.14001562-246.14001562-246.14001563h-0.48837305C324.46475 53.90608203 214.09244141 164.27839063 214.09244141 300.04609766c0 94.25599805 54.2094082 180.2096543 139.18631836 221.23299023-155.79100195 45.41869336-271.53541406 187.53525-276.90751758 357.00069727 0 0.97674609-0.48837305 1.46511914-0.48837305 2.44186523 0 0.48837305 0.48837305 0.97674609 0.48837305 1.46511914 0 4.39535742 1.46511914 9.27908789 3.41861133 13.18607227 7.81396875 16.60468359 27.83726367 23.9302793 44.44194726 15.6279375 7.3255957-3.41861133 12.69769922-9.27908789 16.11631055-16.6046836 1.46511914-3.41861133 1.95349219-6.83722266 2.44186523-10.25583398 0-1.46511914 0.97674609-2.44186523 0.9767461-3.90698438 0-1.46511914-0.48837305-2.44186523-0.9767461-3.90698437v-15.13956445c0-2.93023828 0.48837305-5.37210352 1.46511914-7.81396875h-0.97674609c10.25583398-86.4420293 54.69778125-164.5817168 123.55838086-217.32600586 1.46511914-0.48837305 2.44186523-0.97674609 3.90698437-1.95349219l0.48837305 0.48837305C311.76705078 604.79087891 358.65086328 584.27921094 408.46491406 575.48849609l2.44186524-0.48837304c7.3255957-0.97674609 14.65119141-2.44186523 22.46516015-2.93023828 6.83722266-0.48837305 13.18607227-0.97674609 20.02329493-0.9767461 2.44186523 0 4.39535742-0.48837305 6.83722265-0.48837304 10.74420703 0 21.00004102 0.97674609 31.255875 1.95349218v-0.48837304c149.44215234 15.13956445 268.60517578 132.3490957 286.18660547 281.79124804h-0.97674609c0.48837305 2.44186523 1.46511914 4.88373047 1.46511914 7.81396875v15.13956446c-0.48837305 1.46511914-0.97674609 2.44186523-0.9767461 3.90698437s0.48837305 2.44186523 0.9767461 3.90698438c0.48837305 3.41861133 0.97674609 6.83722266 2.44186523 10.25583398 5.37210352 12.20932617 17.58142969 20.02329492 30.76750195 20.02329492 18.06980273 0 32.72099414-14.65119141 33.20936719-32.72099414v-1.46511914c0.48837305-0.97674609 0-1.46511914 0-2.44186523M279.53442969 300.04609766c0-100.11647461 81.06992578-181.18640039 181.18640039-181.18640039s181.18640039 81.06992578 181.18640039 181.18640039S560.83730469 481.23249805 460.72083008 481.23249805 279.53442969 400.16257227 279.53442969 300.04609766" p-id="2442" fill="#ffffff"></path><path d="M1114.1639668 886.58212695c-5.37210352-168.97707422-121.11651563-311.09363086-276.90751758-357.00069726 84.97691016-41.02333594 139.18631836-126.97699219 139.18631836-221.23299024 0-135.76770703-109.88393555-245.65164258-245.16326953-246.14001562V62.69679688c-16.60468359 0.97674609-29.79075586 15.13956445-29.79075586 32.23262109 0 17.09305664 13.18607227 30.76750195 29.79075586 31.74424805v0.48837304h2.44186523c98.65135547 1.95349219 177.27941602 82.53504492 177.76778906 181.18640039 0 92.30250586-71.30246484 177.76778906-160.67473242 190.46548828v0.48837305c-7.81396875 0.97674609-15.6279375 4.88373047-21.48841406 10.25583399-8.3023418 7.81396875-13.18607227 18.55817578-13.18607227 29.79075586 0 12.69769922 6.34884961 23.9302793 15.13956446 31.255875 6.83722266 5.86047656 16.11631055 9.76746094 25.88377148 9.76746093h0.48837305c7.3255957 0.48837305 15.13956445 1.46511914 22.46516015 2.93023828l2.93023829 0.48837305c49.81405078 8.79071484 96.69786328 29.30238281 136.74445312 60.06988477l0.48837305-0.48837305c0.97674609 0.97674609 2.44186523 1.46511914 3.90698437 1.95349219 68.86059961 52.74428906 113.79091992 130.88397656 123.55838086 217.32600586h-0.97674609c0.48837305 2.44186523 1.46511914 4.88373047 1.46511914 7.81396875-0.48837305 4.88373047 0 9.76746094 0 15.13956445 0 1.46511914-0.97674609 2.44186523-0.9767461 3.90698437 0 1.46511914 0.48837305 2.44186523 0.9767461 3.90698438 0.48837305 3.41861133 0.97674609 6.83722266 2.44186523 10.25583398 5.37210352 12.20932617 17.58142969 20.02329492 30.76750196 20.02329493 12.69769922 0 24.41865234-7.3255957 30.2791289-19.04654883 1.95349219-4.39535742 2.93023828-8.79071484 3.41861133-13.18607227 0-0.48837305 0.48837305-0.97674609 0.48837305-0.97674609-0.97674609-2.44186523-1.46511914-3.41861133-1.46511914-3.90698438M758.62838867 582.32571875h-0.48837304 0.48837304z" p-id="2443" fill="#ffffff"></path></svg>
