<svg t="1724833180998" class="icon" viewBox="0 0 1024 1024" version="1.1" xmlns="http://www.w3.org/2000/svg" p-id="5789" id="mx_n_1724833180998" width="200" height="200"><path d="M146.285714 0h731.428572a146.285714 146.285714 0 0 1 146.285714 146.285714v731.428572a146.285714 146.285714 0 0 1-146.285714 146.285714H146.285714a146.285714 146.285714 0 0 1-146.285714-146.285714V146.285714a146.285714 146.285714 0 0 1 146.285714-146.285714z m236.690286 587.264c-108.470857 127.926857-98.230857 291.620571-98.230857 291.620571l458.24-1.024S728.941714 696.758857 666.331429 608.914286C603.648 521.142857 557.787429 504.832 512 507.026286c-45.787429 2.194286-86.966857 25.965714-129.024 80.237714z m-2.194286-309.76a131.218286 131.218286 0 1 0 262.363429 6.217143 131.218286 131.218286 0 0 0-262.363429-6.217143z m273.408 198.070857a83.529143 83.529143 0 1 0 166.985143 4.973714 83.529143 83.529143 0 0 0-166.985143-4.973714z m299.885715 401.846857c-13.531429-142.409143-82.651429-205.312-128.585143-231.716571-24.064-13.897143-42.788571-19.602286-77.970286-22.674286 57.417143 91.209143 62.317714 254.390857 62.317714 254.390857h144.237715z m-710.363429-328.411428A83.529143 83.529143 0 1 0 327.241143 404.48a83.529143 83.529143 0 0 0-83.529143 144.603429v-0.073143z m-42.496 99.620571c-45.933714 26.404571-115.053714 89.307429-128.585143 231.716572h144.164572c1.682286 0 4.900571-163.108571 62.390857-254.317715-35.254857 3.072-53.979429 8.777143-77.970286 22.601143z" p-id="5790"></path></svg>
