<svg t="1724003012807" class="icon" viewBox="0 0 1024 1024" version="1.1" xmlns="http://www.w3.org/2000/svg" p-id="1515" width="200" height="200"><path d="M182.3744 665.6a51.2 51.2 0 0 0-49.664 38.7584l-51.2 204.8A51.2 51.2 0 0 0 131.1232 972.8h761.6512a51.2 51.2 0 0 0 49.664-63.6416l-51.2-204.8a51.2 51.2 0 0 0-49.664-38.7584H182.3744z m0-51.2h659.2512a102.4 102.4 0 0 1 99.328 77.568l51.2 204.8A102.4 102.4 0 0 1 892.8768 1024H131.1744a102.4 102.4 0 0 1-99.328-127.232l51.2-204.8A102.4 102.4 0 0 1 182.3232 614.4zM512 460.8a204.8 204.8 0 1 0 0-409.6 204.8 204.8 0 0 0 0 409.6z m0 51.2a256 256 0 1 1 0-512 256 256 0 0 1 0 512z" p-id="1516"></path></svg>
